# xmcd
#
# Track frame offsets: 
#        150
#        16125
#        41017
#        78575
#        101780
#        119642
#        136802
#        154420
#        180887
#        201652
#        227327
#
# Disc length: 3291 seconds
#
# Revision: 0
# Processed by: cddbd v1.5PL3 Copyright (c) Steve Scherf et al.
# Submitted via: ExactAudioCopy v0.95a4
#
DISCID=8e0cd90b
DTITLE=Vibraluxe - Blues Tonic
DYEAR=1994
DGENRE=Blues
TTITLE0=Ralph
TTITLE1=Chickenshack
TTITLE2=Nightshift
TTITLE3=Caddy Daddy
TTITLE4=Born on a Wednesday
TTITLE5=Operator
TTITLE6=Whiskey Woman
TTITLE7=Pokergame of Life
TTITLE8=1-900
TTITLE9=Another Shade of Blue
TTITLE10=Sick of Pauline
EXTD=
EXTT0=
EXTT1=
EXTT2=
EXTT3=
EXTT4=
EXTT5=
EXTT6=
EXTT7=
EXTT8=
EXTT9=
EXTT10=
PLAYORDER=
